<?xml version="1.0" encoding="UTF-8"?>
<svg xmlns="http://www.w3.org/2000/svg" xmlns:xlink="http://www.w3.org/1999/xlink" viewBox="0 0 72 72">
  <defs>
    <style>
      .cls-1 {
        opacity: .08;
      }

      .cls-2 {
        fill: url(#linear-gradient-6);
      }

      .cls-3 {
        fill: url(#linear-gradient-3);
      }

      .cls-4 {
        fill: url(#linear-gradient-2);
      }

      .cls-5 {
        fill: url(#linear-gradient-4);
      }

      .cls-6 {
        fill: url(#linear-gradient-5);
      }

      .cls-7 {
        fill: #fbd10d;
      }

      .cls-8 {
        fill: url(#linear-gradient);
      }
    </style>
    <linearGradient id="linear-gradient" x1="35.03" y1="42.047" x2="35.363" y2="98.38" gradientTransform="matrix(1, 0, 0, 1, 0, 0)" gradientUnits="userSpaceOnUse">
      <stop offset="0" stop-color="#00c4bb"/>
      <stop offset=".163" stop-color="#00bcb2"/>
      <stop offset="1" stop-color="#009185"/>
    </linearGradient>
    <linearGradient id="linear-gradient-2" x1="51.133" y1="17.574" x2="18.467" y2="56.907" xlink:href="#linear-gradient"/>
    <linearGradient id="linear-gradient-3" x1="-815.75" y1="283.623" x2="-848.417" y2="331.956" gradientTransform="translate(917.56 181.874) rotate(30)" gradientUnits="userSpaceOnUse">
      <stop offset="0" stop-color="#009695"/>
      <stop offset="1" stop-color="#005e5d"/>
    </linearGradient>
    <linearGradient id="linear-gradient-4" x1="-813.21" y1="307.99" x2="-823.202" y2="322.775" xlink:href="#linear-gradient-3"/>
    <linearGradient id="linear-gradient-5" x1="53.161" y1="-9.639" x2="-2.239" y2="92.639" gradientTransform="matrix(1, 0, 0, 1, 0, 0)" gradientUnits="userSpaceOnUse">
      <stop offset="0" stop-color="#fff"/>
      <stop offset="1" stop-color="#e2e2e2"/>
    </linearGradient>
    <linearGradient id="linear-gradient-6" x1="60.74" y1="-6.558" x2="4.406" y2="97.442" xlink:href="#linear-gradient-5"/>
  </defs>
  <g id="Layer_6" data-name="Layer 6"/>
  <g id="Layer_5" data-name="Layer 5">
    <path class="cls-1" d="M54.946,38.465l-3.99,.279c-.047-.669-.129-1.328-.239-1.976-.004-.026-.007-.052-.012-.078-.109-.627-.25-1.242-.415-1.846-.012-.044-.022-.089-.034-.133-.165-.588-.359-1.162-.575-1.725-.021-.056-.04-.112-.062-.168-.216-.551-.459-1.087-.721-1.611-.031-.062-.06-.125-.092-.186-.263-.514-.55-1.012-.855-1.498-.041-.065-.081-.131-.123-.196-.307-.477-.635-.939-.981-1.386-.05-.065-.099-.129-.149-.193-.348-.44-.715-.864-1.098-1.273-.058-.062-.116-.123-.174-.185-.387-.402-.79-.788-1.208-1.156-.064-.056-.128-.112-.193-.168-.423-.363-.861-.709-1.313-1.036-.069-.05-.138-.098-.207-.147-.458-.323-.929-.627-1.414-.911-.07-.041-.14-.08-.211-.12-.492-.28-.995-.541-1.511-.779-.07-.032-.14-.062-.21-.093-.524-.235-1.058-.449-1.603-.639-.065-.023-.132-.043-.197-.065-.556-.187-1.121-.352-1.697-.49-.057-.014-.115-.025-.172-.038-.588-.135-1.185-.248-1.79-.329-.045-.006-.091-.009-.136-.015-.622-.08-1.25-.134-1.887-.154-.025,0-.051,0-.076,0-.657-.019-1.321-.008-1.99,.039h-.002c-.356,.025-.713,.059-1.072,.103-.174,.021-.342,.063-.515,.088-.294,.044-.586,.094-.875,.15-.33,.065-.655,.139-.979,.22-.331,.082-.659,.169-.983,.268-.234,.072-.464,.151-.694,.231-.411,.141-.817,.291-1.214,.457-.093,.04-.184,.083-.277,.124-5.487,2.4-9.626,7.161-11.24,12.929-.028,.098-.058,.195-.085,.293-.11,.417-.201,.839-.284,1.266-.047,.239-.094,.478-.132,.72-.052,.335-.093,.672-.128,1.011-.035,.331-.063,.663-.082,.998-.016,.295-.025,.591-.027,.89-.002,.174-.019,.346-.016,.521,.006,.361,.022,.72,.047,1.076h0v.003c.047,.669,.129,1.327,.239,1.974,.004,.026,.007,.052,.012,.077,.109,.627,.25,1.242,.415,1.846,.012,.044,.022,.089,.034,.133,.165,.588,.359,1.163,.575,1.726,.021,.055,.04,.111,.062,.166,.216,.551,.459,1.087,.721,1.611,.031,.062,.06,.125,.092,.187,.263,.514,.55,1.012,.855,1.498,.041,.065,.08,.131,.122,.196,.307,.477,.636,.939,.981,1.387,.05,.064,.099,.129,.149,.193,.348,.44,.715,.864,1.098,1.273,.058,.062,.115,.123,.174,.184,.387,.403,.79,.788,1.209,1.157,.064,.056,.127,.111,.192,.167,.423,.363,.861,.709,1.314,1.036,.069,.05,.138,.098,.207,.147,.458,.322,.929,.627,1.413,.91,.07,.041,.141,.08,.211,.12,.492,.28,.995,.541,1.51,.779,.07,.032,.14,.062,.21,.093,.524,.235,1.058,.449,1.603,.639,.066,.023,.132,.043,.198,.065,.556,.187,1.121,.352,1.696,.49,.057,.014,.116,.025,.173,.038,.588,.135,1.184,.247,1.79,.329,.045,.006,.091,.01,.136,.015,.621,.08,1.25,.134,1.886,.154,.026,0,.053,0,.079,0,.657,.019,1.321,.008,1.99-.039,.622-.043,1.231-.123,1.834-.222,.192-.031,.381-.071,.571-.108,.413-.08,.821-.171,1.224-.275,.209-.054,.418-.108,.625-.169,.409-.121,.811-.257,1.208-.402,.167-.061,.337-.113,.502-.178,.508-.202,1.004-.426,1.49-.666,.243-.12,.477-.253,.714-.383,.261-.143,.519-.287,.773-.441,.259-.157,.513-.318,.764-.486,.214-.144,.423-.295,.631-.446,.257-.187,.516-.37,.764-.569l.005-.004,.002-.002c2.335-1.875,4.226-4.258,5.527-6.968l.695,1.086,5.218-11.392Z"/>
    <circle class="cls-8" cx="35" cy="37" r="20"/>
    <circle class="cls-4" cx="35" cy="37" r="16"/>
    <polygon class="cls-7" points="31 39 31 41 37 41 34 50 36 50 38.999 41 39 39 31 39"/>
    <path class="cls-3" d="M52.321,46.989h0c5.701-9.875,2.024-22.591-8.267-27.834-9.007-4.589-20.305-1.562-25.811,6.916-6.291,9.687-3.118,22.538,6.757,28.239,3.664,2.116,7.719,2.932,11.638,2.604,.803-.067,1.432-.724,1.451-1.53v-.038l.021-.843c.023-.951-.798-1.677-1.746-1.593-3.311,.293-6.744-.43-9.801-2.326-7.011-4.347-9.573-13.598-5.786-20.927,4.213-8.153,14.363-11.062,22.222-6.525,7.64,4.411,10.268,14.216,5.856,21.856h0l3.464,2Z"/>
    <path class="cls-5" d="M45.072,53.318l.173-10.039c.015-.846,.937-1.354,1.679-.926l8.435,4.87c.742,.428,.762,1.481,.037,1.917l-8.608,5.169c-.756,.454-1.731-.109-1.716-.991Z"/>
    <g>
      <path class="cls-6" d="M34,37h-7v-1.626l3.226-4.073c.415-.564,.889-1.072,1.086-1.498,.21-.455,.339-1.017,.324-1.518-.022-.722-.511-1.374-1.277-1.374-.382,0-.685,.174-.909,.52-.225,.347-.45,.94-.45,1.569h-2s0-1.161,.049-1.381c.291-1.597,1.773-2.619,3.351-2.619,1.079,0,1.916,.291,2.511,.874,.595,.582,.893,1.41,.893,2.484,0,.667-.165,1.343-.494,2.028-.329,.686-.925,1.53-1.789,2.533l-1.521,2.081h4v2Z"/>
      <path class="cls-2" d="M42,32h1v2h-1v3h-2v-3h-5v-2l5-7h2v7Zm-5,0h3v-4l-3,4Z"/>
    </g>
  </g>
  <g id="Layer_9" data-name="Layer 9"/>
  <g id="Layer_3" data-name="Layer 3"/>
  <g id="Layer_4" data-name="Layer 4"/>
  <g id="Layer_7" data-name="Layer 7"/>
</svg>