<svg id="Layer_5" data-name="Layer 5" xmlns="http://www.w3.org/2000/svg" xmlns:xlink="http://www.w3.org/1999/xlink" viewBox="0 0 72 72"><defs><style>.cls-1{fill-rule:evenodd;opacity:0.08;}.cls-2{fill:url(#linear-gradient);}.cls-3{fill:url(#linear-gradient-2);}.cls-4{fill:url(#linear-gradient-3);}.cls-5{fill:#ffd100;}</style><linearGradient id="linear-gradient" x1="53.135" y1="15.758" x2="-2.615" y2="82.008" gradientUnits="userSpaceOnUse"><stop offset="0" stop-color="#00c4bb"/><stop offset="1" stop-color="#009185"/></linearGradient><linearGradient id="linear-gradient-2" x1="56.112" y1="16.122" x2="14.782" y2="40.599" gradientUnits="userSpaceOnUse"><stop offset="0" stop-color="#009695"/><stop offset="1" stop-color="#005e5d"/></linearGradient><linearGradient id="linear-gradient-3" x1="53.601" y1="25.609" x2="17.43" y2="47.03" gradientUnits="userSpaceOnUse"><stop offset="0" stop-color="#fff"/><stop offset="1" stop-color="#e2e2e2"/></linearGradient></defs><title>pr</title><path class="cls-1" d="M56.735,20.264,4.893,23.889a1.323,1.323,0,0,0-.924,1.348L4.3,29.945h0l.419,5.985h0l.334,4.775.39,5.572.206,2.952.533,7.619c0,.027.011.052.015.078a.988.988,0,0,0,1.036.882l51.91-3.63a.982.982,0,0,0,.851-.66,1.322,1.322,0,0,0,.056-.437l-.23-3.285-.672-9.611-.4-5.707L57.838,21.47A1.324,1.324,0,0,0,56.735,20.264Z"/><path class="cls-2" d="M61.985,19.035H10.015A1.323,1.323,0,0,0,9,20.316V52.005c0,.027.008.052.01.079a.988.988,0,0,0,.972.951H62.018a.982.982,0,0,0,.9-.6A1.328,1.328,0,0,0,63,52.005V20.316A1.323,1.323,0,0,0,61.985,19.035Z"/><g id="icon-betaalpas"><rect class="cls-3" x="8.996" y="25.035" width="54" height="6"/><rect class="cls-4" x="11.996" y="34.035" width="48" height="4"/><circle class="cls-5" cx="15.496" cy="45.535" r="3.5"/></g></svg>