<?xml version="1.0" encoding="UTF-8"?>
<svg xmlns="http://www.w3.org/2000/svg" xmlns:xlink="http://www.w3.org/1999/xlink" viewBox="0 0 72 72">
  <defs>
    <style>
      .cls-1 {
        fill: url(#linear-gradient-7);
      }

      .cls-2 {
        fill: url(#linear-gradient-9);
      }

      .cls-3 {
        fill: url(#linear-gradient-6);
      }

      .cls-4 {
        fill: url(#linear-gradient-8);
      }

      .cls-5 {
        fill: url(#linear-gradient-3);
      }

      .cls-6 {
        fill: url(#linear-gradient-2);
      }

      .cls-7 {
        fill: url(#linear-gradient-4);
      }

      .cls-8 {
        fill: url(#linear-gradient-5);
      }

      .cls-9 {
        fill: #009286;
      }

      .cls-10 {
        fill: #ffd200;
      }

      .cls-11 {
        fill: url(#linear-gradient);
      }

      .cls-12 {
        clip-rule: evenodd;
        fill: none;
      }

      .cls-13 {
        opacity: .08;
      }

      .cls-13, .cls-14 {
        fill-rule: evenodd;
      }

      .cls-15 {
        fill: url(#linear-gradient-15);
      }

      .cls-16 {
        fill: url(#linear-gradient-14);
      }

      .cls-17 {
        fill: url(#linear-gradient-10);
      }

      .cls-18 {
        fill: url(#linear-gradient-11);
      }

      .cls-19 {
        fill: url(#linear-gradient-12);
      }

      .cls-14 {
        fill: url(#linear-gradient-13);
      }

      .cls-20 {
        clip-path: url(#clippath);
      }
    </style>
    <clipPath id="clippath">
      <path class="cls-12" d="M-118-462h-36c15.5-6.523,27.5-17.561,36-33v33Z"/>
    </clipPath>
    <linearGradient id="linear-gradient" x1="54.026" y1="-10.812" x2="31.193" y2="46.354" gradientTransform="matrix(1, 0, 0, 1, 0, 0)" gradientUnits="userSpaceOnUse">
      <stop offset="0" stop-color="#009695"/>
      <stop offset="1" stop-color="#005e5d"/>
    </linearGradient>
    <linearGradient id="linear-gradient-2" x1="41.212" y1="25.606" x2="-1.788" y2="99.273" gradientTransform="matrix(1, 0, 0, 1, 0, 0)" gradientUnits="userSpaceOnUse">
      <stop offset="0" stop-color="#00c4bb"/>
      <stop offset="1" stop-color="#009185"/>
    </linearGradient>
    <linearGradient id="linear-gradient-3" x1="51.414" y1="17.113" x2="41.248" y2="38.946" xlink:href="#linear-gradient"/>
    <linearGradient id="linear-gradient-4" x1="59.507" y1="35.912" x2="15.203" y2="61.166" xlink:href="#linear-gradient"/>
    <linearGradient id="linear-gradient-5" x1="16.393" y1="65.918" x2="74.811" y2="-23.545" gradientTransform="translate(71 67.713) rotate(180)" gradientUnits="userSpaceOnUse">
      <stop offset="0" stop-color="#005e5d"/>
      <stop offset=".644" stop-color="#009695"/>
    </linearGradient>
    <linearGradient id="linear-gradient-6" x1="23.762" y1="60.059" x2="37.286" y2="40.813" gradientTransform="matrix(1, 0, 0, 1, 0, 0)" gradientUnits="userSpaceOnUse">
      <stop offset="0" stop-color="#005e5d"/>
      <stop offset=".448" stop-color="#008584"/>
      <stop offset=".644" stop-color="#009695"/>
    </linearGradient>
    <linearGradient id="linear-gradient-7" x1="51.176" y1="18.436" x2="-9.453" y2="82.97" xlink:href="#linear-gradient-2"/>
    <linearGradient id="linear-gradient-8" x1="38.528" y1="29.112" x2="39.863" y2="21.77" gradientTransform="matrix(1, 0, 0, 1, 0, 0)" xlink:href="#linear-gradient-5"/>
    <linearGradient id="linear-gradient-9" x1="50.032" y1="34.38" x2="57.099" y2="19.083" gradientTransform="matrix(1, 0, 0, 1, 0, 0)" gradientUnits="userSpaceOnUse">
      <stop offset="0" stop-color="#ffd645"/>
      <stop offset="1" stop-color="#fdb813"/>
    </linearGradient>
    <linearGradient id="linear-gradient-10" x1="46.159" y1="19.164" x2="8.205" y2="76.612" xlink:href="#linear-gradient-2"/>
    <linearGradient id="linear-gradient-11" x1="51.414" y1="17.113" x2="41.248" y2="38.946" xlink:href="#linear-gradient"/>
    <linearGradient id="linear-gradient-12" x1="59.507" y1="35.912" x2="15.203" y2="61.166" xlink:href="#linear-gradient"/>
    <linearGradient id="linear-gradient-13" x1="55.565" y1="-2.283" x2="23.316" y2="37.875" gradientTransform="matrix(1, 0, 0, 1, 0, 0)" gradientUnits="userSpaceOnUse">
      <stop offset="0" stop-color="#009796"/>
      <stop offset="1" stop-color="#005e5d"/>
    </linearGradient>
    <linearGradient id="linear-gradient-14" x1="56.987" y1="26.421" x2="54.103" y2="28.542" xlink:href="#linear-gradient-13"/>
    <linearGradient id="linear-gradient-15" x1="56.987" y1="20.421" x2="54.103" y2="22.542" xlink:href="#linear-gradient-13"/>
  </defs>
  <g id="Layer_6" data-name="Layer 6"/>
  <g id="Layer_5" data-name="Layer 5">
    <g class="cls-20">
      <g/>
    </g>
    <path class="cls-13" d="M56.883,50.293l-2.024-28.943c-.077-1.094-1.026-1.919-2.12-1.843l-43.921,3.071c-1.094,.077-1.919,1.026-1.843,2.12l2.024,28.943-6.983,.488,.138,1.978c.078,1.111,1.041,1.949,2.153,1.871l57.825-4.044c1.111-.078,1.949-1.041,1.871-2.153l-.138-1.978-6.983,.488Z"/>
    <path class="cls-11" d="M13.986,18H58.014c1.096,0,1.986,.89,1.986,1.986v29.049H12V19.986c0-1.096,.89-1.986,1.986-1.986Z"/>
    <rect class="cls-6" x="13.972" y="20.083" width="44" height="29"/>
    <path class="cls-5" d="M5,49h62v1.983c0,1.113-.904,2.017-2.017,2.017H7.017c-1.113,0-2.017-.904-2.017-2.017v-1.983h0Z"/>
    <path class="cls-7" d="M28.996,49h13v.035c0,1.104-.896,2-2,2h-9c-1.104,0-2-.896-2-2v-.035h0Z"/>
    <polygon class="cls-13" points="38.99 20 14 44.99 14 20 38.99 20"/>
    <g>
      <path class="cls-8" d="M27,22h17v15.738c0,4.402-3.573,7.975-7.975,7.975h-1.05c-4.402,0-7.975-3.573-7.975-7.975v-15.738h0Z" transform="translate(71 67.713) rotate(-180)"/>
      <path class="cls-3" d="M39,40.305v6.099h-7v-6.099c1.069,.378,2.259,.588,3.5,.588s2.431-.21,3.5-.588Z"/>
      <path class="cls-1" d="M38.148,28.516c-2.186,3.85-9.148,4.032-9.148,4.032v2.52c0,2.722,1.599,4.979,3.852,5.987,.809,.363,1.709,.564,2.648,.564s1.839-.202,2.648-.564c.722-.318,1.372-.771,1.931-1.32,1.18-1.179,1.921-2.812,1.921-4.667v-4.032s-2.749-.212-3.852-2.52Z"/>
    </g>
    <path class="cls-4" d="M46,44.53v2.47H25v-2.47c1.94-.73,4.46-1.27,7-1.53,0,1.1,1.57,2,3.5,2s3.5-.9,3.5-2c2.54,.26,5.06,.8,7,1.53Z"/>
    <polygon class="cls-9" points="51 34 47 29.875 47 23 55 23 55 29.784 51 34"/>
    <polygon class="cls-2" points="51 34 51 26 55 29.912 51 34"/>
    <path class="cls-13" d="M56.883,50.293l-2.024-28.943c-.077-1.094-1.026-1.919-2.12-1.843l-43.921,3.071c-1.094,.077-1.919,1.026-1.843,2.12l2.024,28.943-6.983,.488,.138,1.978c.078,1.111,1.041,1.949,2.153,1.871l57.825-4.044c1.111-.078,1.949-1.041,1.871-2.153l-.138-1.978-6.983,.488Z"/>
    <path class="cls-11" d="M13.986,18H58.014c1.096,0,1.986,.89,1.986,1.986v29.049H12V19.986c0-1.096,.89-1.986,1.986-1.986Z"/>
    <rect class="cls-17" x="13.972" y="20.083" width="44" height="29"/>
    <path class="cls-18" d="M5,49h62v1.983c0,1.113-.904,2.017-2.017,2.017H7.017c-1.113,0-2.017-.904-2.017-2.017v-1.983h0Z"/>
    <path class="cls-19" d="M28.996,49h13v.035c0,1.104-.896,2-2,2h-9c-1.104,0-2-.896-2-2v-.035h0Z"/>
    <path class="cls-14" d="M17.527,34.5c0,4.694,3.806,8.5,8.5,8.5s8.5-3.806,8.5-8.5-3.806-8.5-8.5-8.5-8.5,3.806-8.5,8.5Zm11.265-5.344l-.58,2.039c-.923-.312-1.295-.372-1.831-.372-.862,0-1.384,.268-1.607,1.548h3.364l-.148,1.34h-3.334c-.016,.209-.016,.402-.016,.61,0,.194,0,.387,.016,.58h3.482l-.148,1.341h-3.245c.208,1.458,.744,1.652,1.8,1.652,.565,0,.938-.06,1.86-.521l.417,2.083c-1.116,.417-1.757,.506-2.471,.506-2.634,0-3.736-1.206-4.049-3.721h-.848v-1.341h.758c-.015-.193-.015-.386-.015-.58,0-.209,0-.402,.015-.61h-.758v-1.34h.892c.403-2.515,1.667-3.617,3.929-3.617,.699,0,1.37,.075,2.515,.402Z"/>
    <polygon class="cls-13" points="38.99 20 14 44.99 14 20 38.99 20"/>
    <rect class="cls-10" x="38" y="39" width="10" height="3" rx="1.5" ry="1.5"/>
    <rect class="cls-16" x="38" y="33" width="16" height="3" rx="1.5" ry="1.5"/>
    <rect class="cls-15" x="38" y="27" width="16" height="3" rx="1.5" ry="1.5"/>
  </g>
  <g id="Layer_9" data-name="Layer 9"/>
  <g id="Layer_3" data-name="Layer 3"/>
  <g id="Layer_4" data-name="Layer 4"/>
  <g id="Layer_7" data-name="Layer 7"/>
</svg>