<?xml version="1.0" encoding="UTF-8"?>
<svg xmlns="http://www.w3.org/2000/svg" xmlns:xlink="http://www.w3.org/1999/xlink" viewBox="0 0 72 72">
  <defs>
    <style>
      .cls-1 {
        fill: url(#linear-gradient-7);
      }

      .cls-2 {
        fill: url(#linear-gradient-6);
      }

      .cls-3 {
        fill: url(#linear-gradient-3);
      }

      .cls-4 {
        fill: url(#linear-gradient-2);
      }

      .cls-5 {
        fill: url(#linear-gradient-4);
      }

      .cls-6 {
        fill: url(#linear-gradient-5);
      }

      .cls-7 {
        fill: #005e5d;
      }

      .cls-8 {
        fill: #ffd100;
      }

      .cls-9 {
        fill: url(#linear-gradient);
      }

      .cls-10 {
        fill-rule: evenodd;
        opacity: .08;
      }
    </style>
    <linearGradient id="linear-gradient" x1="49.135" y1="20.758" x2="-6.615" y2="87.008" gradientTransform="matrix(1, 0, 0, 1, 0, 0)" gradientUnits="userSpaceOnUse">
      <stop offset="0" stop-color="#00c4bb"/>
      <stop offset="1" stop-color="#009185"/>
    </linearGradient>
    <linearGradient id="linear-gradient-2" x1="47.547" y1="26.581" x2="14.013" y2="38.381" gradientTransform="matrix(1, 0, 0, 1, 0, 0)" gradientUnits="userSpaceOnUse">
      <stop offset="0" stop-color="#009695"/>
      <stop offset="1" stop-color="#005e5d"/>
    </linearGradient>
    <linearGradient id="linear-gradient-3" x1="48.759" y1="30.025" x2="15.225" y2="41.825" xlink:href="#linear-gradient-2"/>
    <linearGradient id="linear-gradient-4" x1="49.971" y1="33.47" x2="16.437" y2="45.27" xlink:href="#linear-gradient-2"/>
    <linearGradient id="linear-gradient-5" x1="51.183" y1="36.914" x2="17.649" y2="48.714" xlink:href="#linear-gradient-2"/>
    <linearGradient id="linear-gradient-6" x1="53.32" y1="47.711" x2="48.363" y2="52.668" gradientTransform="matrix(1, 0, 0, 1, 0, 0)" gradientUnits="userSpaceOnUse">
      <stop offset="0" stop-color="#fff"/>
      <stop offset="1" stop-color="#e2e2e2"/>
    </linearGradient>
    <linearGradient id="linear-gradient-7" x1="44.26" y1="38.229" x2="49.979" y2="32.511" gradientTransform="matrix(1, 0, 0, 1, 0, 0)" gradientUnits="userSpaceOnUse">
      <stop offset="0" stop-color="#000" stop-opacity=".05"/>
      <stop offset="1" stop-color="#000" stop-opacity=".12"/>
    </linearGradient>
  </defs>
  <g id="Layer_6" data-name="Layer 6"/>
  <g id="Layer_5" data-name="Layer 5">
    <path class="cls-10" d="M52.735,25.264L.893,28.889c-.565,.184-.968,.72-.924,1.348l1.082,15.469,.39,5.572,.206,2.952,.533,7.619c.002,.027,.012,.052,.015,.078,.063,.523,.514,.918,1.036,.881l51.91-3.63c.398-.028,.724-.299,.852-.66,.037-.14,.067-.284,.056-.437l-.23-3.285-.672-9.611-.399-5.707-.91-13.009c-.044-.628-.518-1.103-1.102-1.206Z"/>
    <path class="cls-9" d="M57.985,24.035H6.015c-.576,.144-1.015,.651-1.015,1.28v31.689c0,.027,.008,.052,.01,.079,.026,.526,.449,.951,.972,.951H58.018c.399,0,.743-.248,.896-.599,.047-.137,.086-.279,.086-.432V25.316c0-.629-.439-1.137-1.015-1.28Z"/>
    <g id="icon-betaalpas">
      <g>
        <rect class="cls-4" x="10.996" y="36.035" width="8" height="4"/>
        <rect class="cls-3" x="21.996" y="36.035" width="8" height="4"/>
        <rect class="cls-5" x="32.996" y="36.035" width="8" height="4"/>
        <rect class="cls-6" x="43.996" y="36.035" width="8" height="4"/>
      </g>
      <circle class="cls-2" cx="50.996" cy="50.035" r="4"/>
      <circle class="cls-8" cx="43.996" cy="50.035" r="4"/>
    </g>
    <path class="cls-1" d="M58.996,37.035h0c-8.667,0-14.083-5.417-14.083-13l14.083,.002v12.998Z"/>
    <circle class="cls-8" cx="58" cy="24.035" r="10"/>
    <rect class="cls-7" x="56.996" y="20.035" width="2" height="8"/>
    <rect class="cls-7" x="56.996" y="20.035" width="2" height="8" transform="translate(82.031 -33.96) rotate(90)"/>
  </g>
  <g id="Layer_9" data-name="Layer 9"/>
  <g id="Layer_3" data-name="Layer 3"/>
  <g id="Layer_4" data-name="Layer 4"/>
  <g id="Layer_7" data-name="Layer 7"/>
</svg>