<svg id="Layer_5" data-name="Layer 5" xmlns="http://www.w3.org/2000/svg" xmlns:xlink="http://www.w3.org/1999/xlink" viewBox="0 0 72 72"><defs><style>.cls-1,.cls-2,.cls-3,.cls-5{fill-rule:evenodd;}.cls-1{opacity:0.08;}.cls-2{fill:url(#linear-gradient);}.cls-3{fill:#fff;}.cls-3,.cls-5{opacity:0.3;}.cls-4{fill:url(#linear-gradient-2);}.cls-5{fill:#009185;}.cls-6{fill:#005e5d;}.cls-7{fill:url(#linear-gradient-3);}.cls-8{fill:#ffd100;}</style><linearGradient id="linear-gradient" x1="55.495" y1="26.647" x2="27.176" y2="54.966" gradientUnits="userSpaceOnUse"><stop offset="0" stop-color="#00c4bb"/><stop offset="1" stop-color="#009185"/></linearGradient><linearGradient id="linear-gradient-2" x1="46.121" y1="21.41" x2="22.24" y2="45.292" xlink:href="#linear-gradient"/><linearGradient id="linear-gradient-3" x1="206.263" y1="-135.1" x2="3.307" y2="67.856" gradientUnits="userSpaceOnUse"><stop offset="0" stop-color="#009695"/><stop offset="1" stop-color="#005e5d"/></linearGradient></defs><title>pr</title><path class="cls-1" d="M53.3,35.886,32.508,17.272l-.707-.633a2,2,0,0,0-2.863.2l-.715.848L10.456,38.764a1.587,1.587,0,1,0,2.4,2.07l.2-.244L14.3,58.317l.032-.034.351,5.019,13.932-.974,9.98-.7,13.961-.976L50.957,37.831l.376.334A1.509,1.509,0,1,0,53.3,35.886Z"/><polygon class="cls-2" points="54.996 59.035 17.03 59.035 17.029 34.035 36.03 14.223 54.996 34.035 54.996 59.035"/><path class="cls-3" d="M42,34.035a6,6,0,0,0-12,0Z"/><rect class="cls-4" x="34.996" y="27.035" width="2" height="9"/><polygon class="cls-5" points="16.996 54.035 16.996 34.035 36.03 14.223 46.996 26.035 16.996 54.035"/><path class="cls-6" d="M36,43.028h0a5,5,0,0,1,5,5V59.035a0,0,0,0,1,0,0H31a0,0,0,0,1,0,0V48.028a5,5,0,0,1,5-5Z"/><path class="cls-7" d="M57.469,34.38,38.026,14.361l-.661-.681a2,2,0,0,0-2.87,0l-.773.8L14.529,34.263a1.586,1.586,0,1,0,2.247,2.231L35.841,16.637,55.348,36.516a1.509,1.509,0,1,0,2.121-2.136Z"/><circle class="cls-8" cx="38.496" cy="50.535" r="1.5"/></svg>