<svg width="72" height="72" viewBox="0 0 72 72" fill="none" xmlns="http://www.w3.org/2000/svg">
<path opacity="0.08" d="M45.0994 53.4997C44.9994 52.0997 44.7994 50.6997 44.4994 49.2997C44.3994 48.7997 44.2994 48.3997 44.1994 47.8997C44.1994 47.7997 44.1994 47.7997 44.0994 47.6997C44.0994 47.5997 43.9994 47.4997 43.9994 47.3997V47.2997C43.8994 46.8997 43.7994 46.5997 43.6994 46.1997C43.4994 45.7997 43.3994 45.3997 43.0994 44.9997L42.9994 44.8997C42.8994 44.7997 42.7994 44.5997 42.5994 44.4997C42.3994 44.2997 42.1994 44.1997 41.8994 44.0997C41.7994 44.0997 41.6994 43.9997 41.5994 43.9997C40.8994 43.7997 40.2994 43.6997 39.7994 43.5997C39.4994 43.4997 39.1994 43.4997 38.8994 43.4997C38.4994 43.3997 38.0994 43.3997 37.6994 43.3997C37.4994 43.3997 37.2994 43.3997 37.0994 43.2997C36.9994 43.2997 36.9994 43.2997 36.8994 43.2997C36.6994 43.2997 36.5994 43.2997 36.3994 43.2997C36.1994 43.2997 35.9994 43.2997 35.7994 43.2997C35.3994 43.2997 34.8994 43.1997 34.2994 43.1997C33.9994 43.1997 33.5994 43.1997 33.2994 43.0997C33.2994 43.0997 33.2994 43.0997 33.2994 43.1997C32.7994 43.1997 32.1994 43.0997 31.9994 42.7997C31.7994 42.4997 31.6994 42.1997 31.6994 41.3997C31.5994 40.2997 31.4994 39.8997 31.6994 39.7997C33.0994 39.0997 33.7994 38.2997 34.4994 35.2997C36.1994 31.0997 35.2994 25.8997 33.1994 23.7997C31.5994 22.0997 29.6994 21.0997 26.8994 21.2997H26.7994C25.3994 21.3997 24.1994 21.7997 23.2994 22.3997C22.2994 22.9997 21.4994 23.7997 20.7994 24.6997C19.0994 27.0997 18.8994 32.3997 21.1994 36.2997C22.3994 39.1997 23.0994 39.7997 24.5994 40.2997C24.6994 40.3997 24.6994 40.7997 24.7994 41.8997C24.8994 42.6997 24.8994 42.8997 24.6994 43.2997C24.5994 43.4997 24.1994 43.6997 23.7994 43.7997C23.4994 43.8997 23.0994 43.9997 22.7994 43.9997C22.4994 43.9997 22.2994 43.9997 21.9994 44.0997C21.7994 44.1997 21.4994 44.1997 21.2994 44.2997C20.3994 44.4997 19.6994 44.6997 19.0994 44.8997C18.6994 44.9997 18.2994 45.1997 17.8994 45.2997C17.2994 45.4997 16.5994 45.7997 15.5994 46.1997C15.1994 46.3997 14.7994 46.5997 14.5994 46.8997C14.4994 46.9997 14.4994 47.0997 14.3994 47.0997C14.2994 47.2997 14.1994 47.3997 14.0994 47.5997C13.7994 48.1997 13.6994 48.8997 13.5994 49.6997C13.5994 49.7997 13.5994 49.8997 13.5994 49.9997C13.5994 50.0997 13.5994 50.1997 13.5994 50.2997C13.4994 51.3997 13.3994 52.4997 13.3994 53.5997C13.3994 53.9997 13.3994 54.2997 13.3994 54.6997C13.3994 55.1997 13.3994 55.6997 13.4994 56.1997L13.6994 58.3997L45.2994 55.9997L45.0994 53.7997C45.1994 53.6997 45.1994 53.5997 45.0994 53.4997Z" fill="black"/>
<path d="M48 51.8V54H16V51.8C16 51.3 16 50.8 16 50.3C16 49.9 16 49.6 16.1 49.2C16.2 48.1 16.3 47 16.6 45.9C16.6 45.8 16.6 45.7 16.7 45.6C16.7 45.5 16.7 45.4 16.8 45.3C17 44.6 17.1 43.9 17.5 43.3C17.6 43.1 17.7 43 17.8 42.8C17.9 42.7 17.9 42.7 18 42.6C18.3 42.3 18.6 42.1 19.1 42C20 41.7 20.8 41.5 21.4 41.3C21.8 41.2 22.2 41.1 22.7 41C23.3 40.9 24 40.7 25 40.6C25.2 40.6 25.4 40.5 25.7 40.5C25.9 40.5 26.2 40.4 26.5 40.4C26.8 40.4 27.2 40.3 27.5 40.2C27.9 40.1 28.3 40 28.5 39.8C28.7 39.5 28.7 39.2 28.7 38.4C28.7 37.3 28.8 36.9 28.6 36.8C27.1 36.2 26.4 35.5 25.5 32.5C23.5 28.4 24.1 23.2 25.9 20.9C26.6 20 27.5 19.3 28.5 18.8C29.5 18.3 30.7 18 32.1 18H32.2C33.1 18 33.9 18.1 34.7 18.4C36.2 18.9 37.4 19.8 38.4 21C40.2 23.1 40.7 27.9 39.2 31.8C39.1 32.1 39 32.3 38.9 32.6C37.9 35.5 37.2 36.2 35.8 36.9C35.7 37 35.7 37.4 35.7 38.5C35.7 39.3 35.7 39.5 35.9 39.9C36.1 40.2 36.6 40.3 37.1 40.4C37.4 40.5 37.6 40.5 37.9 40.5C38 40.5 38.2 40.5 38.3 40.6C38.6 40.6 38.8 40.7 39 40.7C39.1 40.7 39.2 40.7 39.3 40.8H39.4C39.4 40.8 39.5 40.8 39.6 40.8C39.8 40.8 40 40.8 40.1 40.9C40.2 41 40.4 41 40.6 41C40.7 41 40.7 41 40.8 41C41 41 41.2 41.1 41.4 41.1C41.8 41.2 42.2 41.2 42.6 41.3C42.9 41.4 43.2 41.4 43.5 41.5C44 41.6 44.6 41.8 45.2 42C45.3 42 45.4 42.1 45.5 42.1C45.8 42.2 46 42.4 46.2 42.5C46.3 42.6 46.4 42.7 46.6 42.9L46.7 43C46.9 43.4 47.1 43.8 47.2 44.2C47.3 44.6 47.4 44.9 47.4 45.3C47.4 45.4 47.4 45.4 47.4 45.4C47.4 45.5 47.4 45.6 47.5 45.7C47.5 45.8 47.5 45.8 47.5 45.9C47.6 46.4 47.7 46.8 47.7 47.3C47.9 48.7 48 50.1 48 51.5C48 51.6 48 51.7 48 51.8Z" fill="url(#paint0_linear_5397_2149)"/>
<path d="M48 51.8002V54.0002H16V51.8002C16 51.3002 16 50.8002 16 50.3002C16 49.9002 16 49.6002 16.1 49.2002C16.2 48.1002 16.4 47.0002 16.6 45.9002C16.6 45.8002 16.6 45.7002 16.6 45.6002C16.6 45.5002 16.6 45.4002 16.7 45.3002C16.9 44.6002 17 43.9002 17.4 43.3002C17.5 43.1002 17.6 43.0002 17.8 42.8002C17.9 42.7002 17.9 42.7002 18 42.6002C18.3 42.3002 18.6 42.1002 19.1 42.0002C20.1 41.7002 20.8 41.5002 21.4 41.3002C21.8 41.2002 22.2 41.1002 22.7 41.0002C23.3 40.9002 24.1 40.7002 25 40.6002C25.2 40.6002 25.4 40.5002 25.7 40.5002C25.9 40.5002 26.2 40.4002 26.5 40.4002C26.8 40.3002 27.2 40.3002 27.5 40.2002C27.5 40.2002 27.5 40.2002 27.5 40.3002C28.2 41.9002 30 44.3002 32.1 44.3002C34.2 44.3002 37.4 40.4002 37.7 40.4002C37.8 40.4002 38 40.4002 38.1 40.5002C38.4 40.5002 38.6 40.6002 38.8 40.6002C38.9 40.6002 39 40.6002 39.1 40.7002H39.2C39.3 40.7002 39.3 40.7002 39.4 40.7002C39.6 40.7002 39.8 40.8002 40 40.8002C40.2 40.8002 40.3 40.9002 40.5 40.9002C40.6 40.9002 40.6 40.9002 40.7 40.9002C40.9 40.9002 41.1 41.0002 41.3 41.0002C41.7 41.1002 42.1 41.1002 42.5 41.2002C42.8 41.3002 43.1 41.3002 43.4 41.4002C43.9 41.5002 44.5 41.7002 45.1 41.9002C45.2 41.9002 45.3 42.0002 45.4 42.0002C45.7 42.1002 45.9 42.3002 46.1 42.4002C46.2 42.5002 46.3 42.6002 46.4 42.8002C46.4 42.8002 46.4 42.9002 46.5 42.9002C46.7 43.3002 46.9 43.7002 47 44.1002C47.1 44.5002 47.2 44.8002 47.2 45.2002V45.3002C47.2 45.4002 47.2 45.5002 47.2 45.6002C47.2 45.7002 47.2 45.7002 47.2 45.8002C47.3 46.2002 47.4 46.7002 47.4 47.2002C47.6 48.6002 47.7 50.0002 47.7 51.4002C48 51.6002 48 51.7002 48 51.8002Z" fill="url(#paint1_linear_5397_2149)"/>
<path d="M37.9006 40.2996C37.6006 40.1996 37.2006 40.1996 36.9006 40.0996C36.9006 40.0996 36.9006 40.0996 36.9006 40.1996C36.2006 41.7996 34.4006 42.9996 32.3006 42.9996C30.2006 42.9996 28.3006 41.7996 27.7006 40.1996C27.6006 40.1996 27.5006 40.1996 27.4006 40.2996C27.1006 40.3996 26.9006 40.3996 26.6006 40.3996C26.0006 40.4996 25.6006 40.4996 25.1006 40.5996C26.0006 43.3996 28.8006 45.4996 32.2006 45.4996C35.6006 45.4996 38.4006 43.3996 39.3006 40.5996C39.0006 40.4996 38.5006 40.3996 37.9006 40.2996Z" fill="url(#paint2_linear_5397_2149)"/>
<path d="M40 51C40.5523 51 41 50.5523 41 50C41 49.4477 40.5523 49 40 49C39.4477 49 39 49.4477 39 50C39 50.5523 39.4477 51 40 51Z" fill="#FFD100"/>
<path opacity="0.08" d="M39 31.7004C36 29.5004 34 26.0004 34 22.0004C34 20.7004 34.2 19.5004 34.6 18.4004C36.1 18.9004 37.3 19.8004 38.3 21.0004C40 23.1004 40.5 27.8004 39 31.7004Z" fill="black"/>
<path d="M46 32C51.5228 32 56 27.5228 56 22C56 16.4772 51.5228 12 46 12C40.4772 12 36 16.4772 36 22C36 27.5228 40.4772 32 46 32Z" fill="#FFD100"/>
<path d="M37 51C37.5523 51 38 50.5523 38 50C38 49.4477 37.5523 49 37 49C36.4477 49 36 49.4477 36 50C36 50.5523 36.4477 51 37 51Z" fill="#FFD100"/>
<path d="M51.3004 20.1004L45.6004 25.8004C45.2004 26.2004 44.6004 26.2004 44.2004 25.8004C43.8004 25.4004 43.8004 24.8004 44.2004 24.4004L49.9004 18.7004C50.3004 18.3004 50.9004 18.3004 51.3004 18.7004C51.7004 19.1004 51.7004 19.8004 51.3004 20.1004Z" fill="#005E5D"/>
<path d="M45.6004 25.7996C45.2004 26.1996 44.6004 26.1996 44.2004 25.7996L40.7004 22.2996C40.3004 21.8996 40.3004 21.2996 40.7004 20.8996C41.1004 20.4996 41.7004 20.4996 42.1004 20.8996L45.6004 24.3996C46.0004 24.7996 46.0004 25.3996 45.6004 25.7996Z" fill="#005E5D"/>
<defs>
<linearGradient id="paint0_linear_5397_2149" x1="51.1968" y1="13.0225" x2="15.198" y2="74.4158" gradientUnits="userSpaceOnUse">
<stop stop-color="#00C4BB"/>
<stop offset="1" stop-color="#009185"/>
</linearGradient>
<linearGradient id="paint1_linear_5397_2149" x1="53.331" y1="9.1624" x2="34.0753" y2="45.9996" gradientUnits="userSpaceOnUse">
<stop offset="0.36" stop-color="#009695"/>
<stop offset="1" stop-color="#005E5D"/>
</linearGradient>
<linearGradient id="paint2_linear_5397_2149" x1="56.9464" y1="-5.74798" x2="24.5743" y2="55.1821" gradientUnits="userSpaceOnUse">
<stop offset="0.36" stop-color="#009695"/>
<stop offset="0.9625" stop-color="#006160"/>
<stop offset="1" stop-color="#005E5D"/>
</linearGradient>
</defs>
</svg>
