<?xml version="1.0" encoding="UTF-8"?>
<svg xmlns="http://www.w3.org/2000/svg" xmlns:xlink="http://www.w3.org/1999/xlink" viewBox="0 0 72 72">
  <defs>
    <style>
      .cls-1 {
        opacity: .08;
      }

      .cls-2 {
        fill: url(#linear-gradient-2);
      }

      .cls-3 {
        fill: #ffd100;
      }

      .cls-4 {
        fill: url(#linear-gradient);
      }
    </style>
    <linearGradient id="linear-gradient" x1="34.517" y1="17.871" x2="20.142" y2="56.496" gradientTransform="matrix(1, 0, 0, 1, 0, 0)" gradientUnits="userSpaceOnUse">
      <stop offset=".36" stop-color="#009695"/>
      <stop offset="1" stop-color="#005e5d"/>
    </linearGradient>
    <linearGradient id="linear-gradient-2" x1="60.935" y1="23.563" x2="45.81" y2="68.688" gradientTransform="matrix(1, 0, 0, 1, 0, 0)" gradientUnits="userSpaceOnUse">
      <stop offset="0" stop-color="#00c4bb"/>
      <stop offset=".891" stop-color="#00978b"/>
      <stop offset="1" stop-color="#009185"/>
    </linearGradient>
  </defs>
  <g id="Layer_6" data-name="Layer 6"/>
  <g id="Layer_5" data-name="Layer 5">
    <path class="cls-1" d="M61.26,47.401c-.34-1.271-.671-2.883-2.15-3.223-2.454-.565-3.091-.557-6.097-.78-.54-.04-1.393-.061-1.641-.394-.189-.254-.219-.451-.265-1.105-.063-.897-.134-1.236-.032-1.289,1.145-.599,1.702-1.192,2.309-3.657,1.363-3.421,.637-7.662-1.023-9.412-1.298-1.367-2.853-2.222-5.136-2.063h-.001l-.054,.004h-.001c-2.284,.16-3.772,1.228-4.867,2.763-1.401,1.964-1.529,6.265,.297,9.463,.944,2.357,1.578,2.867,2.795,3.301,.109,.039,.085,.384,.148,1.281,.046,.655,.044,.854-.109,1.131-.2,.364-1.041,.504-1.57,.619-2.946,.639-3.497,.874-5.848,1.775-.428,.164-.734,.421-.971,.727-.241-.043-.453-.112-.55-.242-.153-.205-.177-.364-.214-.893-.051-.725-.108-.998-.026-1.041,.925-.484,1.375-.963,1.865-2.954,1.101-2.763,.514-6.189-.826-7.602-1.048-1.105-2.304-1.795-4.149-1.666h-.001l-.043,.003h0c-1.844,.129-3.047,.992-3.931,2.231-1.131,1.586-1.235,5.06,.24,7.643,.235,.588,.447,1.021,.656,1.367-1.508-.257-2.66-.309-5.254-.502-.659-.049-1.701-.075-2.005-.482-.231-.31-.268-.551-.324-1.35-.077-1.096-.164-1.51-.039-1.575,1.399-.731,2.079-1.456,2.82-4.468,1.665-4.179,.778-9.361-1.25-11.499-1.585-1.671-3.485-2.715-6.275-2.521h-.002l-.065,.005h-.001c-2.79,.196-4.609,1.5-5.946,3.375-1.711,2.399-1.868,7.654,.362,11.561,1.153,2.88,1.927,3.503,3.415,4.032,.133,.047,.104,.469,.181,1.565,.056,.8,.053,1.043-.133,1.382-.244,.445-1.272,.616-1.918,.756-3.599,.781-4.272,1.068-7.145,2.169-1.732,.664-1.958,2.481-2.153,4.077-.238,1.947-.294,3.937-.157,5.892l.155,2.21,15.744-1.101,.199-.014,4.008-.28,10.409-.728,.132-.009,1.196-.084,.235-.016,8.978-.628,3.909-.273,.163-.011,12.887-.901-.127-1.809c-.112-1.6-.384-3.207-.798-4.758Z"/>
    <path class="cls-4" d="M38.197,44.952c-.306-1.578-.572-3.571-2.346-4.112-2.942-.898-3.72-.942-7.365-1.47-.654-.095-1.692-.194-1.967-.621-.209-.325-.229-.568-.229-1.37,0-1.099-.058-1.518,.071-1.574,1.447-.632,2.176-1.308,3.125-4.261,1.952-4.053,1.429-9.284-.445-11.558-1.465-1.777-3.288-2.952-6.084-2.952h-.069c-2.797,0-4.702,1.175-6.167,2.952-1.874,2.274-2.397,7.505-.445,11.558,.949,2.953,1.678,3.629,3.125,4.261,.129,.056,.071,.475,.071,1.574,0,.802-.02,1.045-.229,1.37-.275,.427-1.312,.526-1.966,.621-3.645,.528-4.336,.767-7.279,1.665-1.774,.541-2.127,2.339-2.432,3.917-.373,1.926-.568,3.907-.568,5.867v2.216h31.765v-2.216c0-1.96-.194-3.941-.568-5.867Z"/>
    <path class="cls-2" d="M64.535,46.419c-.25-1.292-.468-2.923-1.92-3.366-2.408-.735-3.045-.771-6.028-1.203-.536-.078-1.385-.158-1.61-.508-.171-.266-.187-.465-.187-1.121,0-.9-.047-1.242,.058-1.288,1.184-.517,1.781-1.07,2.558-3.488,1.598-3.317,1.17-7.599-.364-9.46-1.199-1.455-2.691-2.416-4.98-2.416h-.056c-2.289,0-3.849,.962-5.048,2.416-1.534,1.861-1.962,6.143-.364,9.46,.777,2.417,1.374,2.97,2.558,3.488,.106,.046,.058,.389,.058,1.288,0,.656-.016,.855-.187,1.121-.225,.349-1.074,.43-1.609,.508-2.983,.432-3.549,.628-5.958,1.363-1.452,.443-1.741,1.914-1.991,3.206-.306,1.577-.465,3.198-.465,4.803v1.814h26v-1.814c0-1.604-.159-3.226-.465-4.803Z"/>
    <path class="cls-3" d="M47.625,47.692c-.202-1.044-.378-2.361-1.551-2.718-1.945-.594-2.459-.623-4.869-.972-.433-.063-1.119-.128-1.3-.41-.138-.215-.151-.375-.151-.905,0-.727-.038-1.003,.047-1.041,.957-.418,1.439-.865,2.066-2.817,1.291-2.679,.945-6.138-.294-7.641-.968-1.175-2.173-1.951-4.022-1.952h-.045c-1.849,0-3.109,.777-4.077,1.952-1.239,1.503-1.585,4.962-.294,7.641,.628,1.952,1.11,2.399,2.066,2.817,.085,.037,.047,.314,.047,1.041,0,.53-.013,.691-.151,.905-.182,.282-.867,.348-1.3,.41-2.41,.349-2.867,.507-4.812,1.101-1.173,.358-1.406,1.546-1.608,2.59-.247,1.273-.375,2.583-.375,3.879v1.465h21v-1.465c0-1.296-.128-2.606-.375-3.879Z"/>
  </g>
  <g id="Layer_9" data-name="Layer 9"/>
  <g id="Layer_3" data-name="Layer 3"/>
  <g id="Layer_4" data-name="Layer 4"/>
  <g id="Layer_7" data-name="Layer 7"/>
</svg>