<?xml version="1.0" encoding="UTF-8"?>
<svg xmlns="http://www.w3.org/2000/svg" xmlns:xlink="http://www.w3.org/1999/xlink" viewBox="0 0 72 72">
  <defs>
    <style>
      .cls-1 {
        opacity: .08;
      }

      .cls-2 {
        fill: url(#linear-gradient-2);
      }

      .cls-3 {
        fill: #005e5d;
      }

      .cls-4 {
        fill: #ffd100;
      }

      .cls-5 {
        fill: url(#linear-gradient);
      }
    </style>
    <linearGradient id="linear-gradient" x1="53.934" y1="24.564" x2="38.807" y2="69.693" gradientTransform="matrix(1, 0, 0, 1, 0, 0)" gradientUnits="userSpaceOnUse">
      <stop offset="0" stop-color="#00c4bb"/>
      <stop offset=".891" stop-color="#00978b"/>
      <stop offset="1" stop-color="#009185"/>
    </linearGradient>
    <linearGradient id="linear-gradient-2" x1="38.517" y1="18.871" x2="24.142" y2="57.496" gradientTransform="matrix(1, 0, 0, 1, 0, 0)" gradientUnits="userSpaceOnUse">
      <stop offset=".36" stop-color="#009695"/>
      <stop offset="1" stop-color="#005e5d"/>
    </linearGradient>
  </defs>
  <g id="Layer_6" data-name="Layer 6"/>
  <g id="Layer_5" data-name="Layer 5">
    <path class="cls-1" d="M54.273,48.785c-.34-1.271-.671-2.883-2.151-3.223-2.454-.565-3.091-.557-6.097-.78-.54-.04-1.393-.061-1.641-.394-.189-.254-.219-.451-.265-1.105-.063-.897-.134-1.236-.032-1.289,1.145-.599,1.702-1.192,2.309-3.657,1.363-3.421,.637-7.662-1.023-9.412-1.298-1.367-2.853-2.222-5.136-2.063h-.001l-.054,.004h-.001c-2.283,.16-3.772,1.228-4.867,2.763-1.4,1.964-1.529,6.265,.297,9.463,.944,2.357,1.578,2.867,2.795,3.301,.109,.039,.085,.384,.148,1.281,.046,.655,.043,.854-.109,1.131-.123,.223-.487,.362-.872,.463-.336-.381-.757-.68-1.329-.812-2.998-.691-3.777-.68-7.449-.953-.659-.049-1.701-.075-2.005-.482-.231-.31-.268-.55-.324-1.35-.077-1.096-.164-1.51-.039-1.575,1.399-.731,2.079-1.456,2.82-4.468,1.665-4.179,.778-9.361-1.25-11.499-1.585-1.671-3.485-2.715-6.275-2.521h-.002l-.065,.005h-.002c-2.79,.196-4.608,1.5-5.946,3.375-1.711,2.399-1.868,7.654,.362,11.561,1.153,2.88,1.927,3.503,3.415,4.032,.133,.047,.104,.469,.181,1.565,.056,.8,.053,1.043-.133,1.382-.244,.445-1.272,.616-1.918,.756-3.599,.781-4.272,1.068-7.145,2.169-1.732,.664-1.958,2.481-2.153,4.077-.238,1.947-.294,3.937-.157,5.892l.155,2.21,15.744-1.101,.199-.014,5.006-.35,10.738-.751,2.148-.15,.163-.011,12.887-.901-.127-1.809c-.112-1.6-.384-3.207-.798-4.758Z"/>
    <path class="cls-5" d="M58,52.22v1.82h-26v-1.82c0-1.6,.16-3.22,.46-4.8,.25-1.29,.54-2.76,2-3.21,2.4-.73,2.97-.93,5.95-1.36,.54-.08,1.39-.16,1.61-.51,.17-.26,.19-.46,.19-1.12,0-.9,.05-1.24-.06-1.29-1.18-.51-1.78-1.07-2.56-3.48-1.59-3.32-1.17-7.6,.37-9.46,.6-.73,1.29-1.33,2.12-1.76,.3-.15,.62-.28,.96-.38,.59-.18,1.24-.28,1.97-.28h.05c2.29,0,3.78,.96,4.98,2.42,1.16,1.4,1.68,4.15,1.2,6.85-.16,.9-.43,1.78-.83,2.61-.78,2.41-1.38,2.97-2.56,3.48-.11,.05-.06,.39-.06,1.29,0,.66,.02,.86,.19,1.12,.22,.35,1.07,.43,1.61,.51,2.98,.43,3.62,.47,6.03,1.2,1.45,.45,1.67,2.08,1.92,3.37,.3,1.58,.46,3.2,.46,4.8Z"/>
    <path class="cls-2" d="M42.197,45.952c-.306-1.578-.572-3.571-2.346-4.112-2.942-.898-3.72-.942-7.365-1.47-.654-.095-1.692-.194-1.967-.621-.209-.325-.229-.568-.229-1.37,0-1.099-.058-1.518,.071-1.574,1.447-.632,2.176-1.308,3.125-4.261,1.952-4.053,1.429-9.284-.445-11.558-1.465-1.777-3.288-2.952-6.084-2.952h-.069c-2.797,0-4.702,1.175-6.167,2.952-1.874,2.274-2.397,7.505-.445,11.558,.949,2.953,1.678,3.629,3.125,4.261,.129,.056,.071,.475,.071,1.574,0,.802-.02,1.045-.229,1.37-.275,.427-1.312,.526-1.966,.621-3.645,.528-4.336,.767-7.279,1.665-1.774,.541-2.127,2.339-2.432,3.917-.373,1.926-.568,3.907-.568,5.867v2.216h31.765v-2.216c0-1.96-.194-3.941-.568-5.867Z"/>
    <path class="cls-1" d="M51.24,33.84c-4.41-.78-7.82-4.45-8.2-8.99,.59-.18,1.24-.28,1.97-.28h.05c2.29,0,3.78,.96,4.98,2.42,1.16,1.4,1.68,4.15,1.2,6.85Z"/>
    <circle class="cls-4" cx="55" cy="22" r="10"/>
    <rect class="cls-3" x="51.768" y="21.268" width="10" height="2" rx="1" ry="1" transform="translate(.881 46.663) rotate(-45)"/>
    <rect class="cls-3" x="51.172" y="19.828" width="2" height="7" rx="1" ry="1" transform="translate(-1.215 43.724) rotate(-45)"/>
  </g>
  <g id="Layer_9" data-name="Layer 9"/>
  <g id="Layer_3" data-name="Layer 3"/>
  <g id="Layer_4" data-name="Layer 4"/>
  <g id="Layer_7" data-name="Layer 7"/>
</svg>