<svg id="Layer_5" data-name="Layer 5" xmlns="http://www.w3.org/2000/svg" xmlns:xlink="http://www.w3.org/1999/xlink" viewBox="0 0 72 72"><defs><style>.cls-1,.cls-5{opacity:0.08;}.cls-2{fill:url(#linear-gradient);}.cls-3{opacity:0.06;}.cls-4{fill:url(#linear-gradient-2);}.cls-6{fill:#fff;}.cls-7{fill:#f9d028;}</style><linearGradient id="linear-gradient" x1="21.828" y1="64.878" x2="61.161" y2="6.212" gradientUnits="userSpaceOnUse"><stop offset="0" stop-color="#009185"/><stop offset="1" stop-color="#00c4bb"/></linearGradient><linearGradient id="linear-gradient-2" x1="44.816" y1="13.188" x2="30.769" y2="35.465" gradientUnits="userSpaceOnUse"><stop offset="0" stop-color="#009595"/><stop offset="1" stop-color="#005e5e"/></linearGradient></defs><title>pr</title><path class="cls-1" d="M46.409,36.01h0l-.021-.31a2.164,2.164,0,0,0-2.309-2.007l-.107.008-.317-4.53a12.493,12.493,0,0,0-6.548-10.1h0a12.367,12.367,0,0,0-1.46-.672c-.044-.017-.087-.036-.131-.052-.213-.08-.428-.151-.646-.219-.13-.041-.261-.077-.392-.114-.189-.052-.377-.106-.57-.149-.31-.07-.625-.129-.944-.175-.126-.018-.254-.029-.381-.043q-.383-.045-.771-.064c-.119-.006-.238-.012-.357-.015-.372-.008-.746-.005-1.125.021A12.523,12.523,0,0,0,18.743,30.913l.317,4.53,1.188-.083-.115.008-.889.062h0l-.291.02a2.157,2.157,0,0,0-1.482.739,2.231,2.231,0,0,0-.241.338,2.151,2.151,0,0,0-.271.794,2.127,2.127,0,0,0-.013.438l1.44,20.6A2.164,2.164,0,0,0,20.7,60.363l25.126-1.757A2.164,2.164,0,0,0,47.828,56.3ZM23.273,30.6A7.932,7.932,0,0,1,35.35,23.279h0a8.053,8.053,0,0,1,.732.511l.055.043a8.244,8.244,0,0,1,.642.568l.036.035a7.98,7.98,0,0,1,1.137,1.429c.012.018.021.038.033.056.137.225.262.459.378.7.034.072.066.147.1.22.085.193.163.391.233.592.032.091.063.182.092.274.062.2.113.406.159.613.02.089.044.176.06.266a8.1,8.1,0,0,1,.12.9l.316,4.53.358-.025L23.589,35.126Zm-1.948,4.688,1.739-.122-1.739.122Z"/><rect class="cls-2" x="21.036" y="31.562" width="29.514" height="24.973" rx="2.163"/><path class="cls-3" d="M23.491,31.562a2.456,2.456,0,0,0-2.455,2.456V54.08a2.447,2.447,0,0,0,1.141,2.067L46.762,31.562Z"/><path class="cls-4" d="M27.847,31.562v-4.54a7.946,7.946,0,0,1,15.892,0v4.54H48.28v-4.54a12.487,12.487,0,1,0-24.973,0v4.54Z"/><g class="cls-5"><path class="cls-6" d="M25.577,28.157A12.523,12.523,0,0,1,38.063,15.67a12.343,12.343,0,0,1,4.389.817,12.369,12.369,0,0,0-6.659-1.952A12.523,12.523,0,0,0,23.307,27.022v4.54h2.27Z"/><path class="cls-6" d="M46.009,31.562V28.157a7.96,7.96,0,0,0-5.6-7.593,7.935,7.935,0,0,1,3.333,6.458v4.54Z"/></g><path class="cls-7" d="M50.55,34.035v-.31a2.164,2.164,0,0,0-2.163-2.163H23.2a2.164,2.164,0,0,0-2.163,2.163v.31Z"/></svg>