<?xml version="1.0" encoding="UTF-8"?>
<svg xmlns="http://www.w3.org/2000/svg" xmlns:xlink="http://www.w3.org/1999/xlink" viewBox="0 0 72 72">
  <defs>
    <style>
      .cls-1 {
        opacity: .08;
      }

      .cls-2 {
        fill: url(#linear-gradient-3);
      }

      .cls-3 {
        fill: url(#linear-gradient-2);
      }

      .cls-4 {
        fill: url(#linear-gradient-4);
      }

      .cls-5 {
        fill: url(#linear-gradient-5);
      }

      .cls-6 {
        fill: #ffd100;
      }

      .cls-7 {
        fill: url(#linear-gradient);
      }

      .cls-8 {
        opacity: .16;
      }
    </style>
    <linearGradient id="linear-gradient" x1="57.037" y1="11.523" x2="45.037" y2="25.523" gradientTransform="matrix(1, 0, 0, 1, 0, 0)" gradientUnits="userSpaceOnUse">
      <stop offset="0" stop-color="#009695"/>
      <stop offset="1" stop-color="#005e5d"/>
    </linearGradient>
    <linearGradient id="linear-gradient-2" x1="61.444" y1="27.382" x2="47.972" y2="41.187" gradientTransform="matrix(1, 0, 0, 1, 0, 0)" gradientUnits="userSpaceOnUse">
      <stop offset="0" stop-color="#00c4bb"/>
      <stop offset="1" stop-color="#009185"/>
    </linearGradient>
    <linearGradient id="linear-gradient-3" x1="36" y1="67.348" x2="36" y2="48.846" xlink:href="#linear-gradient-2"/>
    <linearGradient id="linear-gradient-4" x1="36" y1="4963.152" x2="36" y2="4944.651" gradientTransform="translate(0 4967.875) scale(1 -1)" xlink:href="#linear-gradient-2"/>
    <linearGradient id="linear-gradient-5" x1="51.501" y1="20.312" x2="5.167" y2="67.312" xlink:href="#linear-gradient"/>
  </defs>
  <g id="Layer_6" data-name="Layer 6"/>
  <g id="Layer_5" data-name="Layer 5">
    <path class="cls-1" d="M47.754,34.996l-.301,.021c-.927-3.501-2.986-6.505-5.755-8.62l.027-.002c-.613-.501-.985-.827-1.279-1.178-.23-.275-.414-.565-.625-.966l-.002-.004c-.071-.134-.145-.281-.225-.444-.536-1.09-.867-3.213-.867-3.213l-.998,.07-.558-7.981-13.966,.977,.558,7.981-.998,.07s-.032,2.148-.411,3.302c-.443,1.349-.65,1.674-1.75,2.863l.027-.002c-3.117,3.157-4.925,7.577-4.591,12.35,.037,.529,.108,1.046,.195,1.557,.027,.163,.06,.323,.093,.484,.072,.356,.156,.707,.252,1.053,.046,.17,.088,.341,.14,.508,.134,.431,.285,.855,.454,1.268,.099,.243,.212,.478,.323,.715,.087,.185,.173,.37,.267,.551,.139,.271,.283,.538,.437,.8,.054,.091,.112,.179,.168,.269,1.041,1.695,2.37,3.189,3.938,4.386l-.027,.002c1.254,1.024,1.505,1.318,2.131,2.592,.536,1.09,.867,3.213,.867,3.213l.998-.07,.558,7.981,13.966-.977-.554-7.918,.998-.07-.004-.062s.032-2.148,.411-3.302c.443-1.349,.65-1.674,1.75-2.863l-.027,.002c2.447-2.479,4.069-5.741,4.499-9.337l.301-.021,1.995-.14-.419-5.985-1.995,.14Z"/>
    <path class="cls-7" d="M51.698,33.035c-.68-3.557-2.525-6.698-5.139-9h.027c-1.18-1.109-1.41-1.419-1.945-2.734-.458-1.125-.641-3.266-.641-3.266h-1v2h-14v-2h-1s-.182,2.141-.641,3.266c-.536,1.315-.766,1.625-1.945,2.734h.027c-3.33,2.932-5.441,7.215-5.441,12s2.112,9.068,5.441,12h-.027c1.18,1.109,1.41,1.419,1.945,2.734,.458,1.125,.641,3.266,.641,3.266h1v-2h14v2.062h1v-.062s.182-2.141,.641-3.266c.536-1.315,.766-1.625,1.945-2.734h-.027c2.614-2.302,4.459-5.443,5.139-9h.302v-6h-.302Z"/>
    <rect class="cls-3" x="52" y="33.035" width="2" height="6"/>
    <rect class="cls-2" x="29" y="52.035" width="14" height="10"/>
    <rect class="cls-4" x="29" y="10.035" width="14" height="10"/>
    <circle class="cls-5" cx="36" cy="36.035" r="13"/>
    <path class="cls-8" d="M44.641,21.301c-.458-1.125-.641-3.266-.641-3.266h-1v2h-14v-2h-1s-.182,2.141-.641,3.266c-.536,1.315-.766,1.625-1.945,2.734h.027c-3.33,2.932-5.441,7.215-5.441,12,0,3.429,1.098,6.589,2.937,9.19l22.454-22.454c-.282-.388-.477-.798-.751-1.47Z"/>
    <g>
      <path class="cls-6" d="M39.92,28.344l-1.418,.692c.784,2.067,1.232,4.298,1.232,6.637s-.449,4.569-1.232,6.637l1.418,.692c.88-2.277,1.381-4.741,1.381-7.328s-.502-5.052-1.381-7.328Z"/>
      <path class="cls-6" d="M35.673,40.929l1.418,.691c.684-1.857,1.076-3.854,1.076-5.948s-.392-4.092-1.076-5.948l-1.418,.691c.589,1.646,.927,3.411,.927,5.257s-.337,3.611-.927,5.257Z"/>
      <path class="cls-6" d="M32.845,39.549l1.417,.691c.492-1.435,.771-2.967,.771-4.569s-.28-3.134-.771-4.569l-1.417,.691c.399,1.222,.621,2.524,.621,3.878s-.222,2.655-.621,3.878Z"/>
      <path class="cls-6" d="M29.988,38.156l1.437,.701c.306-1.008,.474-2.077,.474-3.185s-.168-2.177-.474-3.185l-1.437,.701c.218,.793,.344,1.623,.344,2.484s-.126,1.691-.344,2.484Z"/>
    </g>
  </g>
  <g id="Layer_9" data-name="Layer 9"/>
  <g id="Layer_3" data-name="Layer 3"/>
  <g id="Layer_4" data-name="Layer 4"/>
  <g id="Layer_7" data-name="Layer 7"/>
</svg>