<?xml version="1.0" encoding="UTF-8"?>
<svg xmlns="http://www.w3.org/2000/svg" xmlns:xlink="http://www.w3.org/1999/xlink" viewBox="0 0 72 72">
  <defs>
    <style>
      .cls-1 {
        opacity: .08;
      }

      .cls-2 {
        fill: url(#linear-gradient-6);
      }

      .cls-3 {
        fill: url(#linear-gradient-3);
      }

      .cls-4 {
        fill: url(#linear-gradient-2);
      }

      .cls-5 {
        fill: url(#linear-gradient-4);
      }

      .cls-6 {
        fill: url(#linear-gradient-5);
      }

      .cls-7, .cls-8 {
        fill: #005e5d;
      }

      .cls-9 {
        fill: url(#linear-gradient);
      }

      .cls-8 {
        opacity: .61;
      }
    </style>
    <linearGradient id="linear-gradient" x1="34.458" y1="41.871" x2="16.602" y2="55.587" gradientTransform="matrix(1, 0, 0, 1, 0, 0)" gradientUnits="userSpaceOnUse">
      <stop offset="0" stop-color="#00c4bb"/>
      <stop offset="1" stop-color="#009185"/>
    </linearGradient>
    <linearGradient id="linear-gradient-2" x1="67.931" y1="6.591" x2="4.413" y2="48.684" xlink:href="#linear-gradient"/>
    <linearGradient id="linear-gradient-3" x1="65.069" y1="2.095" x2="1.331" y2="44.333" gradientTransform="matrix(1, 0, 0, 1, 0, 0)" gradientUnits="userSpaceOnUse">
      <stop offset="0" stop-color="#009695"/>
      <stop offset="1" stop-color="#005e5d"/>
    </linearGradient>
    <linearGradient id="linear-gradient-4" x1="74.773" y1=".807" x2="9.936" y2="56.597" xlink:href="#linear-gradient-3"/>
    <linearGradient id="linear-gradient-5" x1="86.302" y1="-.354" x2="15.259" y2="54.818" xlink:href="#linear-gradient"/>
    <linearGradient id="linear-gradient-6" x1="10.004" y1="28.035" x2="45.639" y2="28.035" gradientTransform="matrix(1, 0, 0, 1, 0, 0)" gradientUnits="userSpaceOnUse">
      <stop offset="0" stop-color="#000" stop-opacity=".05"/>
      <stop offset="1" stop-color="#000" stop-opacity=".12"/>
    </linearGradient>
  </defs>
  <g id="Layer_6" data-name="Layer 6"/>
  <g id="Layer_5" data-name="Layer 5">
    <path class="cls-1" d="M34.266,43.921l11.722-.82,13.217-.924c-.881-12.602-10.946-22.44-23.479-23.925l-.075-.009c-.735-.085-1.477-.144-2.227-.17-.072-.003-.145-.002-.217-.004-.249-.007-.498-.015-.749-.015l-.179-2.563c-.058-.826-.775-1.449-1.601-1.392s-1.45,.775-1.392,1.601l.179,2.563c-13.872,1.965-24.083,13.931-23.126,27.611h.004l10.878-.761,2.334-.163,11.718-.819,.848,12.126,.092-.006c-.045,.161-.069,.329-.057,.505l.244,3.491c.231,3.301,3.103,5.798,6.404,5.567,3.301-.231,5.798-3.103,5.567-6.404-.058-.827-.774-1.45-1.601-1.392s-1.45,.774-1.392,1.601c.115,1.65-1.133,3.087-2.783,3.202-1.65,.115-3.087-1.133-3.202-2.783l-.244-3.491c-.012-.176-.06-.34-.126-.492l.092-.006-.848-12.126Zm9.656-11.747c.355,1.095,.672,2.237,.948,3.418,.184,.787,.349,1.592,.494,2.413-.145-.821-.31-1.626-.494-2.413-.276-1.181-.593-2.323-.948-3.418-.71-2.191-1.571-4.196-2.55-5.964-.998-1.804-2.12-3.357-3.329-4.61h0c1.209,1.253,2.331,2.807,3.329,4.61,.979,1.768,1.84,3.774,2.55,5.964Z"/>
    <path class="cls-7" d="M40.996,63.191c-3.309,0-6-2.691-6-6v-3.5c0-.829,.671-1.5,1.5-1.5s1.5,.671,1.5,1.5v3.5c0,1.654,1.346,3,3,3s3-1.346,3-3c0-.829,.671-1.5,1.5-1.5s1.5,.671,1.5,1.5c0,3.309-2.691,6-6,6Z"/>
    <path class="cls-7" d="M36.496,11.035h0c.828,0,1.5,.672,1.5,1.5v5.093h-3v-5.093c0-.828,.672-1.5,1.5-1.5Z"/>
    <path class="cls-9" d="M37.996,53.191V28.16c0-.829-.671-1.5-1.5-1.5s-1.5,.671-1.5,1.5v25.031h3Z"/>
    <path class="cls-8" d="M10.189,38.191c-.118,.934-.185,1.882-.185,2.844H62.996c0-.963-.067-1.911-.185-2.844H10.189Z"/>
    <path class="cls-4" d="M36.498,15.047c-7.362,.508-13.249,11.945-13.249,25.988h13.249V15.047Z"/>
    <path class="cls-3" d="M10,41.035h13.249c0-14.043,5.887-25.48,13.249-25.988v-.012c-14.68,.263-26.498,11.798-26.498,26Z"/>
    <path class="cls-5" d="M36.498,15.047c7.362,.508,13.249,11.945,13.249,25.988h-13.249V15.047Z"/>
    <path class="cls-6" d="M62.996,41.035h-13.249c0-14.043-5.887-25.48-13.249-25.988v-.012c14.68,.263,26.498,11.798,26.498,26Z"/>
    <path class="cls-2" d="M45.639,16.756c-2.848-1.052-5.922-1.663-9.14-1.72-14.678,.263-26.495,11.798-26.495,26h10.905l24.73-24.28Z"/>
  </g>
  <g id="Layer_9" data-name="Layer 9"/>
  <g id="Layer_3" data-name="Layer 3"/>
  <g id="Layer_4" data-name="Layer 4"/>
  <g id="Layer_7" data-name="Layer 7"/>
</svg>